<svg version="1.2" xmlns="http://www.w3.org/2000/svg" viewBox="0 0 1280 720" width="1280" height="720">
	<style>
		.s0 { fill: #000000 } 
	</style>
	<path class="s0" d="m1130.76 288.9h20.91v-25.52h80.55v29.59h-75.98v25.43h-25.48v178.33h-29.59v-233.35h29.59z"/>
	<path class="s0" d="m489.66 415.88h20.96v-76.43h25.03v-76.02h29.99v76.02h25.48v76.43h21v-152.45h29.55v156.52h-25.48v76.82h-29.59v-76.82h-25.43v-75.98h-20.95v75.98h-25.53v76.82h-29.6v-76.82h-25.87v-156.52h30.44z"/>
	<path class="s0" d="m1001.75 288.9h25.08v177.48h25.42v30.39h-29.54v-25.87h-46.49v25.87h-80.54v-25.87h-25.88v-75.98h30.45v71.46h71.51v-25.07h25.47v-46.39h-127.43v-4.52h25.88v-25.52h101.55v-71.91h-96.98v50.95h-30.45v-55.02h25.88v-25.52h106.07z"/>
	<path class="s0" d="m694.9 288.9h20.96v-25.47h80.55v25.47h25.08v25.03h25.47v131.45h-25.47v25.52h-25.08v25.87h-80.55v-25.87h-20.96v25.87h-30.39v-55.46h55.47v25.07h71.91v-25.07h25.47v-122.81h-25.47v-25.53h-71.91v25.53h-25.08v122.81h-30.39v-254.31h30.39z"/>
	<path class="s0" d="m385.78 288.9h25.12v25.03h25.48v80.89h-152.06v46.44h25.03v25.12h71.96v-25.12h25.47v-25.43h29.6v29.55h-25.48v25.47h-25.12v25.88h-80.55v-25.88h-25.48v-25.47h-25.87v-80.5h152.95v-46.48h-25.52v-25.43h-71.96v25.43h-25.03v46.48h-30.44v-50.95h25.87v-25.03h25.48v-25.52h80.55z"/>
	<path class="s0" d="m179.89 288.9h21v-25.52h29.55v29.59h-25.47v76.43h-25.08v25.42h-101.41v21.01h126.49v25.48h25.47v55.46h-25.47v25.43h-131.05v-25.43h-25.88v-51.39h30.44v46.43h122.41v-46.43h-152.85v-4.07h25.88v-21.41h-25.88v-29.5h25.88v-21h-25.88v-76.43h30.44v71.91h96.94v-71.91h-127.38v-4.07h25.88v-25.52h105.97z"/>
	<path class="s0" d="m491.05 525.68h0.25l0.05 0.05 0.15 0.05h0.1l0.3 0.14 0.05 0.05 0.2 0.1 0.29 0.3 0.05 0.1 0.1 0.05 0.1 0.2 0.05 0.05 0.05 0.15 0.1 0.2 0.05 0.05v0.15l0.05 0.09v1.94l-0.05 0.15v0.1l-0.25 0.5-0.05 0.05-0.05 0.1-0.1 0.04-0.1 0.2-0.1 0.05-0.04 0.1-0.3 0.15-0.05 0.05-0.3 0.15h-0.1l-0.15 0.1h-0.3l-0.1 0.05h-447.48l-0.1-0.05h-0.29l-0.1-0.1h-0.15l-0.05-0.05-0.15-0.05-0.05-0.05-0.3-0.15-0.3-0.3-0.05-0.1-0.09-0.04-0.05-0.1-0.05-0.05-0.2-0.4v-0.1l-0.05-0.1v-0.15l-0.05-0.1v-1.74l0.05-0.1v-0.09l0.05-0.15v-0.05l0.1-0.2 0.05-0.15 0.05-0.05 0.1-0.2 0.09-0.05 0.05-0.1 0.1-0.05 0.05-0.1 0.1-0.05 0.05-0.1 0.3-0.15 0.05-0.04 0.15-0.05 0.05-0.05h0.15l0.2-0.1z"/>
	<path class="s0" d="m1237.48 525.68h0.25l0.05 0.05 0.1 0.05h0.15l0.05 0.05 0.15 0.05 0.05 0.04 0.29 0.15 0.05 0.1 0.1 0.05 0.15 0.15 0.05 0.1 0.1 0.05 0.1 0.2 0.05 0.05 0.05 0.15 0.1 0.2 0.05 0.05v0.15l0.05 0.09v1.94l-0.05 0.15v0.1l-0.25 0.5-0.05 0.05-0.05 0.1-0.1 0.04-0.1 0.2-0.1 0.05-0.15 0.15-0.29 0.15-0.05 0.05-0.15 0.05-0.05 0.05h-0.15l-0.1 0.1h-0.3l-0.1 0.05h-447.48l-0.1-0.05h-0.29l-0.15-0.1h-0.1l-0.2-0.1-0.05-0.05-0.4-0.2-0.05-0.1-0.1-0.05-0.1-0.2-0.1-0.04-0.05-0.1-0.04-0.05-0.25-0.5v-0.1l-0.05-0.15v-1.94l0.05-0.09v-0.15l0.05-0.05 0.1-0.2 0.05-0.15 0.05-0.05 0.09-0.2 0.1-0.05 0.05-0.1 0.3-0.3 0.3-0.15 0.05-0.04 0.2-0.1h0.1l0.15-0.05 0.05-0.05z"/>
	<path class="s0" d="m730.41 513.46h0.45l0.4 0.05h0.34l0.1 0.05h0.1l0.1 0.05h0.1l0.1 0.05h0.1l0.59 0.3h0.05l0.05 0.05h0.05v0.05h0.05v0.05h0.05v0.05h0.05l0.05 0.05v4.37l-0.05 0.04v0.1l-0.05 0.05v0.05l-0.1 0.1h-0.05v0.05h-0.49l-0.25-0.05-0.2-0.05-0.25-0.05-0.2-0.05-0.24-0.05-0.15-0.05h-0.6l-0.2-0.05h-0.69l-0.05 0.05h-0.3l-0.2 0.05-0.2 0.1-0.3 0.1-0.19 0.05-0.15 0.1-0.15 0.05-0.15 0.1-0.15 0.05-0.15 0.1-0.1 0.15-0.15 0.05-0.15 0.1-0.1 0.15-0.24 0.24-0.05 0.1-0.15 0.15-0.05 0.1-0.15 0.15-0.05 0.1-0.3 0.45-0.05 0.15-0.2 0.29-0.1 0.3-0.1 0.15-0.05 0.15-0.1 0.35-0.09 0.3-0.05 0.34-0.1 0.3-0.1 0.4-0.15 1.04-0.05 0.4v0.35l-0.05 0.34v0.35l-0.05 0.4v13.95l-0.05 0.05v0.15h-0.05v0.1l-0.05 0.05h-0.05v0.05h-0.05v0.05h-0.05l-0.05 0.05h-4.52v-0.05h-0.05l-0.05-0.05h-0.05v-0.05l-0.05-0.05v-0.05h-0.05v-0.05l-0.05-0.05v-0.15l-0.05-0.05v-22.34l-0.04-0.8v-1.44l-0.05-0.69v-0.8l0.05-0.05v-0.15l0.04-0.05v-0.05h0.05v-0.04h0.05v-0.05h0.05v-0.05h0.1v-0.05h4.72v0.05h0.05v0.05h0.05v0.14h0.05v2.34l0.15-0.3 0.1-0.15 0.15-0.15 0.2-0.3 0.14-0.14 0.1-0.15 0.15-0.15 0.15-0.1 0.2-0.15 0.25-0.25 0.3-0.2 0.2-0.15 0.29-0.2 0.4-0.19 0.15-0.15 0.15-0.05 0.2-0.1 0.3-0.1 0.19-0.05 0.1-0.05h0.05l0.1-0.05h0.15l0.1-0.05h0.25l0.05-0.05h0.64z"/>
	<path class="s0" d="m608 513.36h0.55l0.54 0.05 0.55 0.1 0.99 0.2 0.5 0.15 0.45 0.15 0.44 0.2 0.4 0.19 0.45 0.2 0.39 0.3 0.35 0.25 0.35 0.3 0.65 0.64 0.29 0.4 0.3 0.35 0.5 0.79 0.25 0.45 0.2 0.45 0.19 0.49 0.3 1 0.1 0.54 0.15 0.55 0.05 0.54 0.1 0.6 0.05 0.6v18.02h-0.05v0.05l-0.15 0.15h-0.05v0.05h-0.05l-0.05 0.05h-4.52v-0.05h-0.1v-0.05h-0.05l-0.05-0.05h-0.05v-0.05l-0.05-0.05v-0.1h-0.05v-0.1l-0.05-0.05v-16.24l-0.04-0.44v-0.8l-0.15-1.04-0.1-0.35-0.05-0.29-0.2-0.6-0.2-0.5-0.15-0.2-0.1-0.24-0.15-0.2-0.05-0.1-0.1-0.1-0.1-0.05-0.05-0.15-0.09-0.05-0.05-0.1-0.15-0.15-0.1-0.05-0.1-0.1-0.1-0.05-0.05-0.05-0.15-0.1-0.05-0.05-0.15-0.05-0.4-0.19-0.14-0.05h-0.1l-0.1-0.05-0.25-0.05-0.3-0.05-0.25-0.05h-0.94l-0.4 0.05h-0.4l-0.34 0.05-0.35 0.1-0.35 0.05-0.3 0.1-0.34 0.09-0.3 0.1-0.25 0.15-0.3 0.15-0.25 0.2-0.25 0.15-0.24 0.2-0.2 0.2-0.2 0.25-0.2 0.19-0.15 0.25-0.2 0.25-0.15 0.25-0.1 0.3-0.14 0.29-0.1 0.3-0.1 0.35-0.1 0.3-0.1 0.35-0.05 0.34-0.05 0.4-0.05 0.35-0.05 0.4v16.43h-0.05v0.1l-0.05 0.05v0.05l-0.1 0.1h-0.05v0.05h-0.05l-0.05 0.05h-4.52v-0.05h-0.05l-0.05-0.05h-0.05v-0.05h-0.05l-0.05-0.05v-0.1l-0.04-0.05v-0.05h-0.05v-0.2l-0.05-0.05v-22.29l-0.05-0.85v-1.59l-0.05-0.29v-0.6l-0.05-0.3v-0.2l0.05-0.05v-0.1l0.1-0.09h0.05v-0.05h0.05v-0.05h0.04l0.05-0.05h0.2l0.05-0.05h4.12l0.05 0.05h0.1l0.05 0.05h0.05v0.05h0.05v0.05l0.05 0.05v0.19l-0.1 1.74 0.15-0.15 0.2-0.15 0.15-0.1 0.15-0.14 0.4-0.3 0.14-0.1 0.15-0.15 0.25-0.1 0.2-0.15 0.15-0.1 0.2-0.15 0.59-0.3 0.25-0.09 0.2-0.1 0.25-0.1 0.2-0.1 0.25-0.1 0.24-0.05 0.2-0.05 0.5-0.1 0.25-0.1 0.25-0.05h0.29l0.25-0.05h0.55l0.25-0.05h0.3z"/>
	<path class="s0" d="m694.86 514.01h0.09v0.05h0.05l0.05 0.05v0.05h0.05l0.1 0.09v0.05h0.05v0.1h0.05v0.1l0.05 0.05v16.29l0.05 0.4v0.84l0.05 0.4 0.1 0.35v0.34l0.1 0.35 0.1 0.3 0.05 0.3 0.15 0.3 0.1 0.24 0.1 0.3 0.15 0.2 0.09 0.25 0.15 0.2 0.5 0.49 0.4 0.3 0.59 0.3 0.25 0.1 0.25 0.05 0.25 0.1 0.25 0.05h0.24l0.6 0.1h0.3l0.3-0.05h0.34l0.6-0.1 0.3-0.1 0.3-0.05 0.29-0.1 0.25-0.15 0.3-0.1 0.5-0.3 0.25-0.19 0.24-0.15 0.7-0.7 0.2-0.25 0.39-0.59 0.15-0.3 0.15-0.35 0.15-0.3 0.15-0.34 0.1-0.4 0.1-0.35 0.1-0.45 0.05-0.39 0.1-0.4 0.1-0.89v-15.6l0.05-0.05v-0.05h0.05v-0.1h0.05v-0.05l0.14-0.14h0.05v-0.05l0.05-0.05h0.1l0.05-0.05h4.22v0.05h0.1v0.05h0.05v0.05h0.05v0.05l0.05 0.05v0.04h0.05v0.05h0.05v0.1h0.05v0.05h0.05v0.05l0.05 0.05v0.1l0.05 0.05v25.18l0.05 0.64-0.05 0.1v0.25l-0.05 0.05v0.05h-0.05v0.05h-0.05v0.05h-0.05v0.05h-0.05l-0.05 0.05h-4.42v-0.05h-0.15v-0.05h-0.1v-0.15h-0.05v-0.15l0.05-0.05v-1.98l-0.19 0.15-0.15 0.19-0.2 0.2-0.2 0.15-0.15 0.2-1.39 1.04-0.25 0.1-0.2 0.15-0.25 0.1-0.19 0.1-0.5 0.2-0.2 0.05-0.25 0.1-0.2 0.05-0.24 0.1-0.25 0.05-0.25 0.1h-0.25l-0.2 0.05-0.25 0.05h-0.24l-0.25 0.05h-1.34l-1.64-0.15-0.5-0.1-0.5-0.15-0.49-0.1-0.45-0.2-0.45-0.15-0.39-0.25-0.4-0.2-0.4-0.24-0.39-0.3-0.3-0.25-0.35-0.35-0.6-0.69-0.24-0.4-0.25-0.35-0.25-0.45-0.6-1.34-0.15-0.49-0.1-0.5-0.14-0.55-0.1-0.54-0.05-0.55-0.1-0.59-0.05-0.6v-0.65l-0.05-0.59v-16.59h0.05v-0.15h0.05v-0.1l0.05-0.05h0.05v-0.09h0.05v-0.05h0.05v-0.05h0.05v-0.05h0.05v-0.05h0.14v-0.05h4.18z"/>
	<path class="s0" d="m750.08 513.46h0.74l0.4 0.05h0.4l0.34 0.05 1.2 0.15 0.34 0.05 0.4 0.1 0.4 0.05 0.35 0.1 0.39 0.15 0.35 0.09h0.1v0.05h0.1v0.05h0.05v0.05h0.05v0.05l0.05 0.05v0.5l-0.45 3.38v0.2l-0.05 0.04v0.05l-0.05 0.05v0.05h-0.05v0.1h-0.05v0.05h-0.05v0.05h-0.54l-0.9-0.3-0.3-0.05-0.34-0.09h-0.35l-0.35-0.1-0.35-0.05h-0.69l-0.7-0.05h-0.64l-0.65-0.05-0.49 0.05h-0.45l-0.5 0.05-0.4 0.1-0.44 0.05-0.45 0.14-0.4 0.1-0.34 0.2-0.4 0.1-0.35 0.2-0.35 0.25-0.34 0.2-0.3 0.3-0.3 0.24-0.3 0.3-0.49 0.6-0.25 0.35-0.4 0.69-0.2 0.4-0.15 0.39-0.2 0.4-0.1 0.4-0.14 0.45-0.1 0.39-0.05 0.5-0.1 0.45-0.1 0.99v0.5l-0.05 0.49 0.05 0.5v0.5l0.05 0.49 0.1 0.9 0.1 0.44 0.1 0.4 0.09 0.45 0.15 0.4 0.1 0.34 0.2 0.4 0.15 0.35 0.6 1.04 0.74 0.89 0.9 0.75 0.29 0.2 0.35 0.25 0.35 0.15 0.35 0.19 0.79 0.3 0.8 0.2 0.89 0.2 0.89 0.1 0.4 0.05h0.4l0.39 0.05h1.2l0.34-0.05 0.4-0.05 0.35-0.05h0.35l0.39-0.1 0.35-0.05 0.7-0.2 0.29-0.05 0.1-0.05h0.05l0.05-0.05h0.05v-0.05h0.3l0.1 0.1v0.05h0.05v0.05h0.05v0.05l0.05 0.05v0.1l0.05 0.05v0.05l0.2 3.38v0.54l-0.05 0.05v0.05h-0.05v0.05h-0.05l-0.05 0.05h-0.1v0.05h-0.1l-0.05 0.05h-0.05l-0.3 0.1-0.1 0.05-0.19 0.05-0.15 0.05-0.4 0.1h-0.15l-0.4 0.05-0.44 0.1h-0.45l-0.45 0.1-0.45 0.05-0.99 0.1h-1.94l-0.44-0.05-0.8-0.05-0.74-0.15-0.7-0.1-0.39-0.05-0.35-0.1-0.35-0.05-0.3-0.1-0.34-0.1-0.3-0.1-0.35-0.15-0.3-0.1-0.3-0.15-0.29-0.1-0.6-0.29-0.3-0.2-0.25-0.15-0.29-0.2-0.25-0.15-0.75-0.59-0.25-0.15-0.44-0.45-0.25-0.2-0.2-0.25-0.25-0.2-0.2-0.24-0.2-0.2-0.19-0.25-0.15-0.3-0.2-0.2-0.15-0.3-0.2-0.24-0.3-0.5-0.15-0.3-0.15-0.25-0.14-0.34-0.1-0.25-0.3-0.6-0.1-0.3-0.1-0.34-0.2-0.65-0.15-0.65-0.15-0.69-0.1-0.65-0.05-0.69-0.09-0.7v-2.28l0.04-0.7v-0.39l0.05-0.35 0.05-0.4 0.05-0.35 0.1-0.34 0.05-0.35 0.2-0.7 0.05-0.34 0.15-0.35 0.1-0.3 0.1-0.4 0.15-0.29 0.1-0.3 0.44-0.9 0.2-0.29 0.15-0.3 0.15-0.25 0.2-0.3 0.15-0.25 0.2-0.3 0.39-0.49 0.25-0.3 0.2-0.25 0.89-0.89 0.25-0.2 0.3-0.25 0.2-0.2 0.3-0.15 0.25-0.2 0.29-0.19 0.25-0.15 0.3-0.15 0.3-0.2 0.59-0.3 0.3-0.1 0.3-0.15 0.35-0.1 0.3-0.14 0.29-0.1 0.7-0.2 0.35-0.05 0.29-0.1 0.35-0.05 0.35-0.1h0.35l0.39-0.05 0.7-0.1h0.4l0.34-0.05h0.8z"/>
	<path class="s0" d="m520.9 513.36h0.74l0.35 0.05 0.4 0.1 0.69 0.1 0.35 0.1 0.3 0.05 0.69 0.2 0.3 0.15 0.35 0.1 0.3 0.09 1.19 0.6 0.25 0.15 0.3 0.2 0.24 0.15 0.25 0.2 0.3 0.19 0.25 0.2 0.2 0.2 0.49 0.4 0.2 0.25 0.25 0.2 0.4 0.49 0.25 0.25 0.2 0.25 0.14 0.25 0.2 0.25 0.15 0.24 0.2 0.3 0.15 0.25 0.6 1.19 0.19 0.6 0.15 0.3 0.1 0.34 0.1 0.3 0.2 0.7 0.3 1.29 0.1 0.74 0.1 0.7 0.05 0.69 0.05 0.75v2.13l-0.3 2.09-0.1 0.64-0.15 0.65-0.2 0.65-0.1 0.34-0.1 0.3-0.15 0.3-0.1 0.3-0.14 0.25-0.15 0.34-0.1 0.25-0.15 0.3-0.45 0.74-0.15 0.3-0.2 0.2-0.15 0.3-0.19 0.25-0.15 0.2-0.25 0.29-0.25 0.25-0.2 0.25-0.49 0.5-0.25 0.2-0.25 0.24-0.5 0.4-0.3 0.25-0.24 0.15-0.6 0.4-1.19 0.59-0.35 0.15-0.6 0.2-0.34 0.1-0.35 0.05-0.35 0.1-0.35 0.05-0.34 0.1-0.7 0.1-0.4 0.05h-0.34l-0.4 0.05h-1.54l-0.35-0.05h-0.4l-1.04-0.15-0.35-0.1-0.34-0.05-0.35-0.1-0.35-0.05-0.3-0.1-0.34-0.1-0.3-0.1-1.79-0.89-0.25-0.2-0.3-0.2-0.24-0.15-1-0.79-0.44-0.45-0.2-0.25-0.45-0.45-0.4-0.49-0.15-0.3-0.39-0.5-0.3-0.59-0.15-0.25-0.15-0.3-0.2-0.3-0.1-0.3-0.15-0.29-0.1-0.3-0.14-0.3-0.2-0.69-0.2-0.65-0.3-1.29-0.1-0.75-0.1-0.64-0.05-0.75-0.05-0.69v-0.75h5.41l0.05 0.45v0.45l0.05 0.39 0.05 0.45 0.05 0.4 0.05 0.45 0.2 0.89 0.15 0.4 0.1 0.39 0.15 0.4 0.2 0.4 0.15 0.35 0.2 0.39 0.19 0.35 0.25 0.35 0.1 0.2 0.1 0.15 0.15 0.15 0.1 0.14 0.15 0.15 0.1 0.15 0.3 0.3 0.14 0.1 0.1 0.15 0.2 0.15 0.15 0.1 0.15 0.15 0.3 0.19 0.2 0.1 0.15 0.1 0.39 0.2 0.2 0.05 0.2 0.1 0.4 0.1 0.2 0.1h0.2l0.24 0.05 0.4 0.1h1.84l0.49-0.1 0.15-0.05h0.25l0.2-0.1 0.4-0.1 0.2-0.1 0.2-0.05 0.19-0.1 0.15-0.1 0.2-0.1 0.15-0.1 0.2-0.1 0.15-0.09 0.15-0.15 0.2-0.1 0.29-0.3 0.15-0.1 0.3-0.3 0.1-0.15 0.15-0.15 0.1-0.14 0.15-0.15 0.1-0.15 0.1-0.2 0.39-0.7 0.2-0.39 0.15-0.35 0.2-0.4 0.15-0.4 0.2-0.79 0.15-0.45 0.05-0.44 0.09-0.45 0.05-0.4 0.05-0.45 0.05-0.39v-1.74l-0.05-0.4-0.05-0.45-0.05-0.39-0.09-0.4-0.05-0.4-0.15-0.44-0.1-0.4-0.1-0.45-0.15-0.4-0.2-0.39-0.05-0.2-0.1-0.15-0.2-0.4-0.05-0.15-0.15-0.2-0.19-0.29-0.1-0.2-0.1-0.15-0.15-0.15-0.1-0.2-0.15-0.15-0.1-0.15-0.45-0.44-0.15-0.1-0.14-0.15-0.2-0.1-0.15-0.15-0.15-0.1-0.2-0.1-0.15-0.1-0.2-0.1-0.15-0.15-0.19-0.1-0.2-0.05-0.2-0.09-0.2-0.05-0.2-0.1h-0.2l-0.25-0.1-0.15-0.05h-0.24l-0.25-0.05-0.2-0.05h-1.39l-0.25 0.05h-0.2l-0.2 0.05-0.24 0.05-0.6 0.15-0.2 0.1-0.2 0.05-0.2 0.09-0.2 0.05-0.19 0.15-0.15 0.1-0.2 0.1-0.3 0.2-0.15 0.15-0.15 0.1-0.2 0.15-0.1 0.1-0.14 0.2-0.15 0.09-0.15 0.15-0.1 0.15-0.15 0.2-0.1 0.15-0.15 0.15-0.1 0.15-0.1 0.2-0.15 0.15-0.1 0.15-0.1 0.19-0.09 0.15-0.1 0.2-0.1 0.15-0.1 0.2-0.05 0.2-0.2 0.39-0.05 0.2-0.1 0.2-0.05 0.2-0.05 0.25-0.05 0.2-0.1 0.2-0.1 0.39-0.1 0.45-0.05 0.4-0.05 0.44-0.05 0.4-0.05 0.45v0.4l-0.05 0.44h-5.41v-0.69l0.05-0.75 0.05-0.69 0.1-0.7 0.1-0.74 0.3-1.29 0.2-0.7 0.1-0.3 0.1-0.34 0.14-0.3 0.1-0.3 0.15-0.3 0.1-0.3 0.2-0.29 0.3-0.6 0.15-0.25 0.15-0.3 0.39-0.49 0.15-0.25 0.4-0.5 0.25-0.25 0.2-0.24 0.2-0.2 0.19-0.25 0.75-0.6 0.2-0.2 0.3-0.19 0.24-0.2 0.25-0.15 0.3-0.2 0.25-0.15 1.19-0.6 0.6-0.19 0.34-0.15 0.35-0.1 0.3-0.1 0.35-0.05 0.34-0.1 0.7-0.1 0.35-0.1 0.39-0.05h0.75l0.4-0.05h0.79z"/>
	<path class="s0" d="m671.57 513.36h0.74l0.4 0.05 0.34 0.1 0.7 0.1 0.35 0.1 0.35 0.05 0.34 0.1 0.3 0.1 0.35 0.15 0.59 0.19 1.49 0.75 0.25 0.2 0.3 0.15 1.24 0.99 0.45 0.45 0.25 0.2 0.15 0.24 0.24 0.25 0.6 0.75 0.15 0.25 0.2 0.24 0.15 0.3 0.15 0.25 0.19 0.3 0.15 0.3 0.1 0.29 0.3 0.6 0.2 0.6 0.1 0.34 0.1 0.3 0.2 0.7 0.29 1.29 0.15 0.74 0.05 0.7 0.1 0.69 0.05 0.75v1.44l-0.05 0.69-0.1 0.7-0.05 0.69-0.1 0.7-0.29 1.29-0.2 0.65-0.1 0.34-0.2 0.6-0.15 0.3-0.1 0.25-0.15 0.34-0.15 0.25-0.15 0.3-0.09 0.25-0.15 0.25-0.2 0.24-0.15 0.3-0.15 0.2-0.2 0.3-0.15 0.25-0.2 0.2-0.24 0.29-0.2 0.25-0.5 0.5-0.2 0.25-0.25 0.2-0.3 0.24-0.49 0.4-0.25 0.25-0.3 0.15-0.59 0.4-0.25 0.14-0.35 0.15-0.89 0.45-0.35 0.1-0.3 0.1-0.35 0.1-0.29 0.05-0.4 0.1-0.3 0.05-0.4 0.1-1.04 0.15h-0.4l-0.34 0.05h-1.54l-0.4-0.05h-0.35l-0.35-0.05-0.39-0.05-0.35-0.05-0.35-0.1-0.35-0.05-0.3-0.1-0.34-0.05-0.3-0.1-0.35-0.1-0.3-0.1-0.34-0.15-1.2-0.59-0.24-0.15-0.3-0.2-0.25-0.2-0.3-0.15-0.99-0.79-0.2-0.25-0.25-0.2-0.2-0.25-0.2-0.2-0.59-0.74-0.2-0.3-0.2-0.25-0.15-0.25-0.15-0.3-0.2-0.29-0.14-0.25-0.3-0.6-0.1-0.3-0.3-0.59-0.1-0.3-0.15-0.35-0.05-0.34-0.39-1.3-0.15-0.64-0.1-0.75-0.1-0.64-0.05-0.75-0.05-0.69v-0.3h5.46l0.05 0.45v0.39l0.05 0.45 0.05 0.4 0.3 1.34 0.15 0.4 0.1 0.39 0.15 0.4 0.19 0.4 0.15 0.35 0.2 0.39 0.4 0.7 0.1 0.2 0.1 0.15 0.15 0.15 0.1 0.14 0.29 0.3 0.1 0.15 0.15 0.15 0.15 0.1 0.3 0.3 0.15 0.1 0.15 0.15 0.15 0.09 0.19 0.1 0.15 0.1 0.2 0.1 0.15 0.1 0.25 0.1 0.15 0.05 0.2 0.1 0.39 0.1 0.2 0.1h0.25l0.4 0.1 0.25 0.05h1.83l0.2-0.05 0.25-0.05 0.2-0.05h0.2l0.25-0.1 0.2-0.05 0.14-0.05 0.2-0.1 0.2-0.05 0.4-0.2 0.15-0.1 0.39-0.2 0.15-0.09 0.15-0.15 0.15-0.1 0.3-0.3 0.15-0.1 0.3-0.3 0.1-0.15 0.29-0.29 0.2-0.3 0.15-0.2 0.4-0.7 0.2-0.39 0.15-0.35 0.44-1.19 0.1-0.4 0.2-0.89 0.05-0.45 0.1-0.4 0.05-0.45v-0.84l0.05-0.45-0.05-0.39v-0.85l-0.05-0.45-0.1-0.39-0.05-0.4-0.1-0.4-0.1-0.44-0.1-0.4-0.15-0.45-0.14-0.4-0.1-0.19-0.05-0.2-0.1-0.2-0.05-0.15-0.2-0.4-0.1-0.15-0.1-0.2-0.2-0.29-0.15-0.2-0.2-0.3-0.14-0.2-0.15-0.15-0.1-0.15-0.45-0.44-0.15-0.1-0.15-0.15-0.15-0.1-0.15-0.15-0.15-0.1-0.39-0.2-0.15-0.1-0.2-0.15-0.2-0.1-0.2-0.05-0.2-0.09-0.14-0.05-0.2-0.1h-0.25l-0.2-0.1-0.2-0.05h-0.25l-0.39-0.1h-1.44l-0.2 0.05h-0.25l-0.4 0.1-0.25 0.05-0.39 0.1-0.2 0.1-0.2 0.05-0.15 0.09-0.25 0.05-0.15 0.15-0.2 0.1-0.15 0.1-0.19 0.1-0.15 0.1-0.15 0.15-0.15 0.1-0.15 0.15-0.15 0.1-0.15 0.2-0.15 0.09-0.1 0.15-0.15 0.15-0.14 0.2-0.1 0.15-0.15 0.15-0.1 0.15-0.1 0.2-0.2 0.3-0.1 0.19-0.1 0.15-0.1 0.2-0.1 0.15-0.1 0.2-0.05 0.2-0.29 0.59-0.1 0.4-0.05 0.25-0.1 0.2-0.15 0.59-0.1 0.45-0.1 0.4-0.05 0.44-0.05 0.4v0.45l-0.05 0.4v0.89h-5.46v-1.14l0.05-0.75 0.05-0.69 0.1-0.7 0.1-0.74 0.15-0.65 0.19-0.64 0.2-0.7 0.05-0.3 0.15-0.34 0.1-0.3 0.3-0.6 0.1-0.3 0.44-0.89 0.2-0.25 0.15-0.3 0.15-0.24 1.19-1.49 0.65-0.65 1.24-0.99 0.25-0.15 0.3-0.2 0.29-0.15 0.25-0.15 0.9-0.45 0.34-0.09 0.3-0.1 0.3-0.15 0.35-0.1 0.3-0.1 0.39-0.05 0.3-0.1 0.4-0.05 0.35-0.05 0.34-0.1 0.35-0.05h0.8l0.39-0.05h0.75z"/>
	<path class="s0" d="m771.33 513.36h0.7l0.34 0.05 0.35 0.1 0.3 0.05 0.35 0.05 0.29 0.1 0.3 0.05 0.6 0.2 0.3 0.15 0.29 0.1 0.25 0.09 0.75 0.45 0.3 0.15 0.19 0.15 0.25 0.2 0.25 0.15 0.2 0.15 0.2 0.24 0.25 0.2 0.19 0.15 0.4 0.4 0.2 0.25 0.15 0.25 0.2 0.19 0.15 0.25 0.2 0.25 0.59 0.99 0.1 0.3 0.15 0.25 0.1 0.3 0.15 0.25 0.5 1.49 0.04 0.34 0.1 0.3 0.15 0.65 0.1 0.64 0.1 0.7 0.05 0.64 0.15 2.09v2.38l-0.05 0.05v0.1h-0.05v0.05h-0.05v0.05l-0.1 0.1h-0.05v0.1h-0.05l-0.1 0.1h-0.1l-0.05 0.05h-16.28l0.15 1.19 0.09 0.4 0.05 0.35 0.15 0.34 0.3 1.05 0.2 0.29 0.15 0.35 0.2 0.3 0.15 0.3 0.19 0.3 0.25 0.24 0.2 0.3 0.25 0.25 0.25 0.2 0.25 0.25 0.25 0.2 0.24 0.14 0.3 0.2 0.3 0.15 0.3 0.1 0.34 0.15 0.3 0.1 0.35 0.05 0.35 0.1 0.69 0.1h0.45l0.35 0.05h0.4l0.89-0.1 0.4-0.05h0.49l0.5-0.1 0.45-0.1 0.54-0.05 0.5-0.15 0.5-0.1 0.24-0.1 0.25-0.05 0.5-0.2 0.2-0.09 0.49-0.2 0.2-0.1 0.25-0.1 0.2-0.15 0.2-0.1 0.25-0.15h0.05l0.05-0.05h0.24l0.05 0.05v0.05h0.05v0.15l0.05 0.05v0.25l0.05 0.05v3.67l-0.05 0.1v0.2l-0.05 0.05v0.15h-0.05v0.05l-0.05 0.05v0.05h-0.05v0.1h-0.04l-0.2 0.2h-0.1l-0.15 0.14-0.15 0.1-0.2 0.05-0.4 0.2-0.2 0.05-0.24 0.1-0.2 0.1-0.4 0.1-0.25 0.1-0.49 0.1-0.45 0.1-0.5 0.1-0.49 0.05-0.5 0.1-0.99 0.1h-0.5l-0.55 0.05h-1.74l-0.74-0.05-0.7-0.05-0.69-0.1-1.29-0.3-1.19-0.4-0.6-0.25-0.55-0.25-0.49-0.29-1-0.7-0.44-0.35-0.4-0.39-0.4-0.45-0.39-0.5-0.35-0.49-0.3-0.55-0.35-0.55-0.74-1.78-0.4-1.39-0.15-0.7-0.15-0.74-0.1-0.75-0.1-0.79-0.05-0.8-0.05-0.84v-1.54l0.05-0.7 0.05-0.64 0.1-0.65v-0.2h16.74v-0.44l-0.05-0.15v-0.15l-0.05-0.25-0.05-0.3-0.05-0.25-0.2-0.59v-0.15l-0.2-0.6-0.05-0.1-0.15-0.44-0.1-0.1-0.1-0.3-0.09-0.1-0.05-0.15-0.1-0.1-0.05-0.15-0.1-0.1-0.05-0.15-0.1-0.14-0.2-0.2-0.05-0.15-0.15-0.1-0.05-0.05-0.1-0.15-0.2-0.2-0.15-0.1-0.09-0.1-0.15-0.05-0.2-0.2-0.15-0.1-0.1-0.04-0.15-0.1-0.3-0.1-0.1-0.1-0.44-0.15h-0.2l-0.15-0.05h-0.15l-0.15-0.05h-1.19l-0.3 0.1h-0.1l-0.2 0.05h-0.15l-0.1 0.1-0.59 0.2-0.1 0.05-0.15 0.09-0.15 0.05-0.1 0.1-0.15 0.1-0.1 0.1-0.1 0.05-0.14 0.1-0.1 0.1-0.1 0.05-0.1 0.1-0.1 0.15-0.15 0.1-0.05 0.1-0.15 0.1-0.05 0.1-0.1 0.1-0.1 0.14-0.2 0.2-0.1 0.15-0.05 0.1-0.19 0.3-0.1 0.1-0.05 0.15-0.1 0.15-0.05 0.1-0.1 0.14-0.05 0.15-0.15 0.3-0.05 0.15-0.05 0.1-0.15 0.35-0.05 0.3-0.2 0.59-0.05 0.35-0.14 0.89h-5.52l0.1-0.44 0.1-0.65 0.15-0.69 0.15-0.6 0.1-0.35 0.3-0.89 0.15-0.3 0.19-0.6 0.1-0.24 0.3-0.6 0.15-0.25 0.15-0.3 0.3-0.49 0.2-0.3 0.15-0.25 0.59-0.74 0.2-0.2 0.2-0.25 0.15-0.2 0.25-0.2 0.19-0.2 0.25-0.2 0.25-0.24 0.2-0.15 0.5-0.4 0.49-0.3 0.25-0.2 0.3-0.15 0.3-0.1 0.29-0.14 1.49-0.5 0.7-0.1 0.3-0.05 0.69-0.1h0.4l0.3-0.05h0.74z"/>
	<path class="s0" d="m579.15 513.36h0.69l0.35 0.05 0.35 0.1 0.35 0.05 0.3 0.05 0.29 0.1 0.3 0.05 0.6 0.2 0.29 0.15 0.25 0.1 0.3 0.09 0.25 0.15 0.3 0.15 0.25 0.15 0.19 0.15 0.25 0.15 0.25 0.2 0.2 0.15 0.25 0.15 0.44 0.44 0.2 0.15 0.4 0.4 0.2 0.25 0.15 0.25 0.2 0.19 0.2 0.25 0.59 1 0.1 0.24 0.15 0.3 0.15 0.25 0.15 0.3 0.1 0.25 0.49 1.49 0.1 0.34 0.05 0.3 0.1 0.65 0.15 0.64 0.1 0.7 0.05 0.64 0.1 0.7 0.05 0.69v3.13l-0.05 0.05v0.05h-0.05v0.05l-0.35 0.35h-0.1l-0.05 0.05h-16.29l0.15 1.19 0.1 0.4 0.1 0.35 0.05 0.34 0.1 0.35 0.3 0.7 0.15 0.29 0.15 0.35 0.15 0.3 0.39 0.6 0.25 0.24 0.2 0.3 0.25 0.25 0.25 0.2 0.25 0.25 0.24 0.2 0.3 0.14 0.25 0.2 0.3 0.15 0.3 0.1 0.29 0.15 0.35 0.1 0.35 0.05 0.35 0.1 0.34 0.05 0.4 0.05h0.35l0.4 0.05h0.44l0.4-0.05 0.45-0.05 0.39-0.05h0.5l0.45-0.1 0.49-0.1 0.55-0.05 0.5-0.15 0.49-0.1 0.25-0.1 0.25-0.05 0.75-0.29 0.19-0.1 0.25-0.1 0.2-0.1 0.25-0.1 0.2-0.15 0.2-0.1 0.25-0.15h0.04l0.05-0.05h0.25v0.05h0.05v0.05h0.05v0.1l0.05 0.05v0.45h0.05v3.52l-0.05 0.05v0.35l-0.05 0.05v0.1h-0.05v0.05l-0.05 0.05v0.05h-0.05v0.05l-0.1 0.1h-0.05v0.05l-0.1 0.1h-0.04l-0.1 0.09-0.1 0.05-0.15 0.1-0.2 0.05-0.4 0.2-0.2 0.05-0.2 0.1-0.24 0.1-0.2 0.05-0.25 0.05-0.2 0.1-0.2 0.05-1.24 0.25-0.5 0.05-0.49 0.1-1 0.1h-0.49l-0.55 0.05h-1.79l-1.39-0.1-0.69-0.1-0.7-0.15-0.59-0.15-0.65-0.2-0.59-0.2-0.55-0.25-0.5-0.25-0.54-0.29-0.5-0.35-0.89-0.7-0.45-0.39-0.4-0.45-0.35-0.5-0.39-0.49-0.6-1.1-0.3-0.59-0.49-1.19-0.4-1.39-0.15-0.7-0.1-0.74-0.15-0.75-0.05-0.79-0.1-0.8-0.05-0.84v-1.54l0.05-0.7 0.05-0.64 0.1-0.65v-0.2h16.74v-0.59l-0.05-0.15-0.05-0.25-0.05-0.3-0.1-0.25-0.05-0.29-0.15-0.45v-0.15l-0.15-0.45-0.05-0.1-0.15-0.44-0.1-0.1-0.1-0.3-0.1-0.1-0.05-0.15-0.09-0.1-0.1-0.15-0.05-0.1-0.1-0.15-0.05-0.14-0.1-0.1-0.05-0.1-0.15-0.15-0.05-0.1-0.1-0.05-0.1-0.15-0.15-0.1-0.3-0.3-0.1-0.05-0.14-0.1-0.1-0.1-0.15-0.1-0.1-0.04-0.15-0.1-0.3-0.1-0.1-0.1-0.45-0.15h-0.19l-0.15-0.05h-0.15l-0.15-0.05h-0.99l-0.2 0.05h-0.15l-0.15 0.05h-0.15l-0.15 0.05h-0.15l-0.15 0.1-0.1 0.05-0.44 0.15-0.1 0.05-0.15 0.09-0.1 0.05-0.15 0.1-0.1 0.1-0.15 0.1-0.1 0.05-0.15 0.1-0.1 0.1-0.09 0.05-0.25 0.25-0.05 0.1-0.15 0.1-0.05 0.1-0.15 0.1-0.05 0.1-0.1 0.14-0.2 0.2-0.1 0.15-0.1 0.1-0.05 0.15-0.1 0.15-0.04 0.1-0.1 0.15-0.05 0.15-0.1 0.1-0.1 0.14-0.05 0.15-0.1 0.1-0.05 0.2-0.05 0.15-0.05 0.1-0.1 0.35-0.15 0.3-0.05 0.29-0.1 0.3-0.05 0.35-0.05 0.3-0.1 0.29v0.3h-5.51l0.1-0.44 0.1-0.65 0.15-0.69 0.15-0.6 0.1-0.35 0.49-1.49 0.15-0.3 0.15-0.24 0.1-0.3 0.15-0.3 0.15-0.25 0.15-0.3 0.3-0.49 0.19-0.3 0.15-0.25 0.4-0.5 0.15-0.24 0.84-0.85 0.25-0.2 0.45-0.44 0.2-0.15 0.49-0.4 0.5-0.3 0.3-0.2 0.25-0.15 0.3-0.1 0.29-0.14 1.2-0.4 0.34-0.1 0.3-0.05 1.04-0.15 0.3-0.05h0.4l0.35-0.05h0.74z"/>
	<path class="s0" d="m551.84 513.51l0.34 0.05 0.3 0.05h0.3l0.3 0.1 0.59 0.1 0.3 0.1 0.25 0.05 0.3 0.1 0.25 0.1 0.29 0.14 0.3 0.1 0.5 0.25 0.25 0.15 0.25 0.1 0.24 0.15 0.25 0.2 0.25 0.15 0.2 0.15 0.25 0.19 0.2 0.15 0.19 0.2 0.25 0.2 0.6 0.6 0.15 0.25 0.2 0.24 0.19 0.2 0.15 0.25 0.2 0.3 0.3 0.49 0.15 0.3 0.15 0.25 0.3 0.6 0.1 0.29 0.14 0.25 0.15 0.35 0.1 0.3 0.1 0.35 0.1 0.29 0.3 1.05 0.15 0.69 0.2 1.49 0.2 1.59v3.23l-0.1 0.79-0.2 1.49-0.1 0.7-0.15 0.69-0.3 1.05-0.1 0.29-0.15 0.3-0.1 0.3-0.1 0.35-0.14 0.25-0.45 0.89-0.1 0.25-0.2 0.25-0.15 0.3-0.2 0.24-0.29 0.5-0.4 0.5-0.2 0.2-0.15 0.24-0.2 0.2-0.25 0.2-0.59 0.6-0.25 0.15-0.25 0.19-0.2 0.15-0.99 0.6-0.3 0.15-0.74 0.3-0.3 0.1-0.25 0.09-0.3 0.05-0.25 0.1-0.29 0.05-0.3 0.1h-0.3l-0.6 0.1-0.34 0.05h-1.69l-0.25-0.05h-0.25l-0.25-0.05-0.2-0.05-0.49-0.1-0.25-0.1-0.2-0.05-0.25-0.09-0.25-0.05-0.24-0.1-0.2-0.15-0.25-0.1-0.25-0.05-0.2-0.15-0.4-0.2-0.24-0.15-0.2-0.1-0.2-0.15-0.15-0.15-0.4-0.29-0.15-0.15-0.19-0.15-0.3-0.3-0.3-0.4v8.94l-0.05 0.05v0.15l-0.05 0.05v0.1h-0.05v0.05h-0.05v0.05h-4.82v-0.05h-0.05l-0.05-0.05h-0.04v-0.1l-0.05-0.05v-0.1h-0.05v-19.71h5.26v0.59l0.05 0.55 0.05 0.5 0.05 0.54 0.1 0.45 0.05 0.49 0.2 0.9 0.44 1.19 0.15 0.35 0.2 0.35 0.6 0.89 0.74 0.74 0.5 0.4 0.3 0.15 0.24 0.15 0.3 0.15 0.3 0.1 0.35 0.15 0.3 0.05 0.29 0.1 0.35 0.05h1.44l0.35-0.1 0.35-0.05 0.34-0.1 0.6-0.2 0.6-0.3 0.24-0.2 0.3-0.2 0.25-0.24 0.25-0.2 0.2-0.3 0.2-0.25 0.19-0.3 0.2-0.35 0.2-0.29 0.15-0.35 0.2-0.4 0.15-0.35 0.15-0.39 0.1-0.4 0.3-1.34 0.14-1.49 0.05-0.55v-2.23l-0.1-1.09-0.09-1-0.1-0.49-0.2-0.9-0.1-0.4-0.3-0.79-0.2-0.35-0.15-0.34-0.2-0.35-0.39-0.6-0.2-0.25-0.5-0.49-0.25-0.2-0.3-0.2-0.24-0.2-0.3-0.15-0.3-0.1-0.3-0.15-0.3-0.1-0.34-0.05-0.35-0.09-0.3-0.05h-1.39l-0.15 0.05h-0.15l-0.89 0.29-0.15 0.1-0.15 0.05-0.1 0.05-0.15 0.1-0.15 0.05-0.14 0.1-0.15 0.05-0.1 0.15-0.3 0.2-0.1 0.05-0.15 0.15-0.15 0.1-0.1 0.14-0.25 0.25-0.1 0.15-0.14 0.1-0.3 0.45-0.1 0.2-0.3 0.44-0.1 0.2-0.1 0.15-0.05 0.2-0.1 0.2-0.05 0.2-0.15 0.39-0.19 0.4-0.15 0.4-0.1 0.5-0.1 0.44-0.05 0.5-0.1 0.5-0.1 1.09v1.69h-5.26v-14.16h0.05v-0.1h0.05v-0.1l0.09-0.09h0.05l0.05-0.05v-0.05h0.1l0.05-0.05h0.15l0.05-0.05h4.02l0.05 0.05h0.15v0.05h0.05l0.1 0.1h0.05v0.05h0.05v0.09h0.05v0.05l0.05 0.05v0.15l0.05 0.05v1.89l0.84-0.84 0.2-0.15 0.2-0.1 0.6-0.45 0.2-0.1 0.14-0.15 0.25-0.1 0.6-0.3 0.25-0.09 0.39-0.2 0.25-0.05 0.25-0.1 0.2-0.05 0.5-0.1 0.19-0.05 0.5-0.1h0.25l0.25-0.05z"/>
	<path class="s0" d="m646.88 513.36h0.7l0.25 0.05h0.25l0.24 0.05h0.25l0.25 0.05 0.3 0.05h0.2l0.49 0.1 0.2 0.05 0.75 0.15 0.2 0.05h0.24l0.2 0.05 0.2 0.1 0.4 0.1 0.74 0.24 0.2 0.1 0.1 0.1h0.05v0.05l0.1 0.1v0.1h0.05v0.25l-0.05 0.05v0.05l-0.3 3.18v0.15l-0.05 0.05v0.19l-0.1 0.1v0.05h-0.05v0.05h-0.54l-0.05-0.05h-0.2l-0.5-0.2-0.24-0.05-0.25-0.09-0.25-0.05-0.3-0.1-0.25-0.05-0.3-0.1-0.69-0.1-0.75-0.1-0.19-0.05h-0.25l-0.2-0.05h-1.94l-0.25 0.05h-0.2l-0.59 0.15-0.15 0.1-0.2 0.05-0.15 0.05-0.3 0.2-0.09 0.09-0.15 0.1-0.1 0.15-0.3 0.3-0.1 0.15-0.1 0.3-0.1 0.1-0.1 0.29v0.15l-0.05 0.15v0.2l-0.05 0.15v0.15l-0.05 0.15v0.3l0.05 0.05v0.1l0.05 0.09v0.1l0.1 0.2 0.05 0.15 0.05 0.1 0.1 0.1 0.05 0.1 0.2 0.2 0.1 0.15 0.1 0.05 0.1 0.1 0.1 0.15 0.14 0.09 0.1 0.15 0.45 0.3 0.1 0.1 0.45 0.3 0.2 0.1 0.44 0.3 0.2 0.1 0.15 0.04 1.49 0.8 0.7 0.4 0.69 0.34 0.6 0.4 0.29 0.15 0.2 0.15 0.25 0.2 0.25 0.15 0.2 0.1 0.15 0.15 0.25 0.14 0.39 0.3 0.15 0.2 0.2 0.2 0.2 0.15 0.35 0.35 0.15 0.19 0.14 0.15 0.45 0.6 0.1 0.15 0.1 0.2 0.15 0.2 0.1 0.19 0.1 0.15 0.1 0.25 0.1 0.15 0.05 0.25 0.1 0.2 0.04 0.2 0.05 0.24 0.05 0.2 0.05 0.25 0.05 0.2v0.25l0.05 0.25v1.24l-0.05 0.54-0.05 0.45-0.1 0.5-0.09 0.45-0.3 0.89-0.2 0.4-0.25 0.39-0.2 0.4-0.3 0.4-0.59 0.69-0.35 0.3-0.35 0.35-0.39 0.3-0.35 0.2-0.35 0.24-0.7 0.3-0.39 0.2-0.35 0.15-0.79 0.2-0.4 0.15-0.4 0.1-0.4 0.05-0.44 0.05-0.4 0.05-0.45 0.05h-2.43l-1.09-0.1-0.5-0.05-0.55-0.05-0.54-0.1-0.25-0.05-0.2-0.05h-0.25l-0.2-0.05-0.24-0.05-0.6-0.15-0.7-0.2-0.24-0.1-0.15-0.05h-0.1l-0.15-0.15h-0.1l-0.05-0.05h-0.05l-0.15-0.1v-0.05h-0.05v-0.1h-0.05v-0.44l0.3-3.18v-0.35l0.05-0.05v-0.1l0.1-0.1v-0.05h0.35l0.05 0.05h0.1l0.09 0.05h0.05l0.4 0.1 0.4 0.15 0.45 0.1 0.34 0.05 0.9 0.2 0.39 0.05 0.45 0.05 0.45 0.1h0.4l0.79 0.1h0.4l0.35 0.05h1.24l0.74-0.15h0.2l0.25-0.05 0.2-0.1 0.2-0.05 0.19-0.1 0.15-0.1 0.2-0.1 0.3-0.2 0.65-0.64 0.29-0.45 0.05-0.15 0.1-0.15 0.05-0.15 0.05-0.2 0.1-0.29 0.05-0.2v-0.2l0.05-0.15v-0.3l-0.05-0.1v-0.15l-0.05-0.1v-0.14l-0.05-0.05v-0.1l-0.4-0.8-0.19-0.2-0.05-0.1-0.1-0.09-0.1-0.15-0.4-0.4-0.3-0.2-0.25-0.25-0.15-0.05-0.09-0.15-0.2-0.1-1.34-0.74-1.44-0.85-1.39-0.79-1.4-0.84-0.39-0.2-0.15-0.15-0.2-0.15-0.2-0.1-0.15-0.15-0.2-0.15-0.79-0.79-0.15-0.2-0.15-0.15-0.3-0.4-0.2-0.39-0.14-0.2-0.3-0.6-0.05-0.2-0.1-0.2-0.05-0.24-0.1-0.4v-0.25l-0.05-0.25v-0.2l-0.05-0.2v-0.49l0.05-0.25v-0.55l0.05-0.2v-0.24l0.05-0.2 0.05-0.25 0.05-0.2 0.05-0.25 0.1-0.2 0.1-0.39 0.29-0.6 0.05-0.2 0.1-0.15 0.2-0.39 0.15-0.15 0.1-0.15 0.1-0.2 0.15-0.15 0.1-0.15 0.15-0.15 0.15-0.1 0.1-0.2 0.14-0.1 0.3-0.29 0.15-0.1 0.15-0.15 0.15-0.1 0.2-0.15 0.3-0.2 0.19-0.1 0.3-0.2 0.2-0.1 0.15-0.09 0.2-0.05 0.2-0.1 0.2-0.05 0.15-0.1 0.79-0.2 0.45-0.1 0.39-0.1 0.45-0.05 0.4-0.1h0.45l0.44-0.05h0.9z"/>
</svg>